<svg width="24" height="24" viewBox="0 0 24 24" fill="none" xmlns="http://www.w3.org/2000/svg">
<path d="M15.8411 12.1088C17.3179 12.8069 18.5771 13.8933 19.4839 15.252C20.3907 16.6106 20.911 18.1902 20.9891 19.8218C20.9994 19.9713 20.9797 20.1213 20.9313 20.2631C20.8828 20.4049 20.8065 20.5355 20.7068 20.6474C20.6072 20.7593 20.4862 20.8501 20.3509 20.9146C20.2157 20.9791 20.0689 21.0159 19.9193 21.0229C19.7696 21.0299 19.6201 21.0069 19.4794 20.9553C19.3387 20.9037 19.2098 20.8246 19.1001 20.7225C18.9905 20.6204 18.9023 20.4974 18.8408 20.3608C18.7794 20.2241 18.7458 20.0766 18.7421 19.9268C18.6603 18.1936 17.9143 16.5585 16.6588 15.3608C15.4032 14.1631 13.7347 13.4949 11.9996 13.4949C10.2645 13.4949 8.59597 14.1631 7.34046 15.3608C6.08496 16.5585 5.33888 18.1936 5.25711 19.9268C5.2369 20.2202 5.10263 20.494 4.88304 20.6896C4.66345 20.8852 4.376 20.987 4.08225 20.9733C3.78851 20.9596 3.51181 20.8314 3.31142 20.6162C3.11102 20.4009 3.00287 20.1158 3.01011 19.8218C3.0879 18.1904 3.6079 16.6108 4.51446 15.2521C5.42102 13.8935 6.67999 12.8069 8.15661 12.1088C7.21013 11.3194 6.5298 10.2575 6.20819 9.06769C5.88657 7.87788 5.93926 6.61788 6.3591 5.45908C6.77895 4.30028 7.54556 3.29893 8.55465 2.59125C9.56375 1.88357 10.7663 1.50391 11.9989 1.50391C13.2314 1.50391 14.434 1.88357 15.4431 2.59125C16.4522 3.29893 17.2188 4.30028 17.6386 5.45908C18.0585 6.61788 18.1111 7.87788 17.7895 9.06769C17.4679 10.2575 16.7876 11.3194 15.8411 12.1088ZM15.7496 7.49933C15.7496 6.50477 15.3545 5.55094 14.6513 4.84768C13.948 4.14442 12.9942 3.74933 11.9996 3.74933C11.005 3.74933 10.0512 4.14442 9.34796 4.84768C8.64469 5.55094 8.24961 6.50477 8.24961 7.49933C8.24961 8.49389 8.64469 9.44772 9.34796 10.151C10.0512 10.8542 11.005 11.2493 11.9996 11.2493C12.9942 11.2493 13.948 10.8542 14.6513 10.151C15.3545 9.44772 15.7496 8.49389 15.7496 7.49933Z" fill="black"/>
</svg>
