<svg width="40" height="40" viewBox="0 0 40 40" fill="none" xmlns="http://www.w3.org/2000/svg">
<g clip-path="url(#clip0_205_16)">
<path fill-rule="evenodd" clip-rule="evenodd" d="M19.9997 3.33331C10.7947 3.33331 3.33301 10.795 3.33301 20C3.33301 29.205 10.7947 36.6666 19.9997 36.6666C29.2047 36.6666 36.6663 29.205 36.6663 20C36.6663 10.795 29.2047 3.33331 19.9997 3.33331ZM14.1663 15.8333C14.1663 15.0673 14.3172 14.3087 14.6104 13.601C14.9035 12.8933 15.3332 12.2502 15.8749 11.7085C16.4166 11.1668 17.0596 10.7372 17.7674 10.444C18.4751 10.1509 19.2336 9.99998 19.9997 9.99998C20.7657 9.99998 21.5243 10.1509 22.232 10.444C22.9397 10.7372 23.5828 11.1668 24.1245 11.7085C24.6661 12.2502 25.0958 12.8933 25.389 13.601C25.6821 14.3087 25.833 15.0673 25.833 15.8333C25.833 17.3804 25.2184 18.8641 24.1245 19.9581C23.0305 21.0521 21.5468 21.6666 19.9997 21.6666C18.4526 21.6666 16.9688 21.0521 15.8749 19.9581C14.7809 18.8641 14.1663 17.3804 14.1663 15.8333ZM30.4297 28.3066C29.1821 29.876 27.596 31.1432 25.79 32.0137C23.9839 32.8841 22.0045 33.3352 19.9997 33.3333C17.9948 33.3352 16.0154 32.8841 14.2094 32.0137C12.4033 31.1432 10.8173 29.876 9.56967 28.3066C12.2713 26.3683 15.958 25 19.9997 25C24.0413 25 27.728 26.3683 30.4297 28.3066Z" fill="#E3E3E3"/>
</g>
<defs>
<clipPath id="clip0_205_16">
<rect width="40" height="40" fill="white"/>
</clipPath>
</defs>
</svg>
